<?xml version="1.0" encoding="iso-8859-1"?>
<!-- Generator: Adobe Illustrator 19.0.0, SVG Export Plug-In . SVG Version: 6.00 Build 0)  -->
<svg version="1.1" id="Layer_1" xmlns="http://www.w3.org/2000/svg" xmlns:xlink="http://www.w3.org/1999/xlink" x="0px" y="0px"
	 viewBox="0 0 512 512" style="enable-background:new 0 0 512 512;" xml:space="preserve">
<g>
	<g>
		<path d="M477.875,132.267h-59.752c-18.815,0-34.123,15.284-34.123,34.071v34.196H128v-34.196
			c0-18.786-15.308-34.071-34.125-34.071H34.123C15.308,132.267,0,147.551,0,166.337v179.325c0,18.787,15.308,34.071,34.123,34.071
			h59.752c18.817,0,34.125-15.283,34.125-34.071V320h256v25.663c0,18.787,15.308,34.071,34.123,34.071h59.752
			c18.817,0,34.125-15.283,34.125-34.071V166.337C512,147.551,496.692,132.267,477.875,132.267z M110.933,345.663
			c0,9.377-7.652,17.004-17.058,17.004H34.123c-9.404,0-17.056-7.627-17.056-17.004V166.337c0-9.376,7.652-17.004,17.056-17.004
			h59.752c9.406,0,17.058,7.628,17.058,17.004V345.663z M128,302.933V217.6h86.252c-11.088,10.851-17.985,25.965-17.985,42.667
			s6.898,31.816,17.986,42.667H128z M256,302.933c-23.527,0-42.667-19.141-42.667-42.667S232.473,217.6,256,217.6
			s42.667,19.141,42.667,42.667S279.527,302.933,256,302.933z M384,302.933h-86.252c11.088-10.851,17.985-25.965,17.985-42.667
			s-6.898-31.816-17.985-42.667H384V302.933z M494.933,345.663c0,9.377-7.652,17.004-17.058,17.004h-59.752
			c-9.404,0-17.056-7.627-17.056-17.004V166.337c0-9.376,7.652-17.004,17.056-17.004h59.752c9.406,0,17.058,7.628,17.058,17.004
			V345.663z"/>
	</g>
</g>
<g>
</g>
<g>
</g>
<g>
</g>
<g>
</g>
<g>
</g>
<g>
</g>
<g>
</g>
<g>
</g>
<g>
</g>
<g>
</g>
<g>
</g>
<g>
</g>
<g>
</g>
<g>
</g>
<g>
</g>
</svg>
