<svg height="512pt" viewBox="0 -11 512.00013 512" width="512pt" xmlns="http://www.w3.org/2000/svg"><path d="m501.894531 489.964844c5.582031 0 10.105469-4.523438 10.105469-10.105469v-358.574219c0-5.582031-4.523438-10.105468-10.105469-10.105468h-148.78125v-60.070313h16.675781c12.972657 0 12.992188-20.207031 0-20.207031h-16.675781v-21.164063c0-12.972656-20.207031-12.992187-20.207031 0v21.164063h-55.734375v-21.164063c0-12.972656-20.207031-12.992187-20.207031 0v21.164063h-56.761719v-21.164063c0-12.972656-20.207031-12.992187-20.207031 0v21.164063h-58.289063v-21.164063c0-12.972656-20.210937-12.992187-20.210937 0v21.164063h-54.515625v-21.164063c0-12.972656-20.207031-12.992187-20.207031 0v21.164063h-17.035157c-12.972656 0-12.992187 20.207031 0 20.207031h17.035157v54.515625h-17.035157c-12.972656 0-12.992187 20.207031 0 20.207031h17.035157v58.292969h-17.035157c-12.972656 0-12.992187 20.207031 0 20.207031h17.035157v56.761719h-17.035157c-12.972656 0-12.992187 20.207031 0 20.207031h17.035157v55.730469h-17.035157c-12.972656 0-12.992187 20.210938 0 20.210938h17.035157v17.179687c0 12.972656 20.207031 12.992187 20.207031 0v-17.179687h54.515625v17.179687c0 12.972656 20.207031 12.992187 20.207031 0v-17.179687h13.679687v122.617187c0 5.582031 4.523438 10.105469 10.105469 10.105469zm-257.078125-358.578125h68.769532v70.804687h-68.769532zm246.976563 161.199219h-67.605469v-70.183594h67.605469zm-87.8125 0h-70.183594v-70.183594h70.183594zm-248.386719-70.183594h69.015625v70.183594h-69.015625zm89.222656 0h68.769532v70.183594h-68.769532zm-20.210937-20.210938h-69.015625v-70.804687h69.015625zm-69.011719 110.601563h69.015625v68.773437h-69.015625zm89.222656 0h68.769532v68.773437h-68.769532zm88.980469 68.773437v-68.773437h70.183594v68.773437zm90.390625-68.773437h67.605469v68.773437h-67.605469zm67.605469-110.601563h-67.605469v-70.804687h67.605469zm-87.8125 0h-70.183594v-70.804687h70.183594zm-258.492188-91.011718c-5.578125 0-10.105469 4.523437-10.105469 10.105468v215.746094h-13.675781v-17.179688c0-12.972656-20.210937-12.992187-20.210937 0v17.179688h-54.515625v-55.730469h17.328125c12.972656 0 12.992187-20.207031 0-20.207031h-17.328125v-56.761719h17.328125c12.972656 0 12.992187-20.210937 0-20.210937h-17.328125v-58.289063h17.328125c12.972656 0 12.992187-20.207031 0-20.207031h-17.328125v-54.515625h54.515625v13.195313c0 12.976562 20.210937 12.996093 20.210937 0v-13.195313h58.289063v13.195313c0 12.976562 20.207031 12.996093 20.207031 0v-13.195313h56.761719v13.195313c0 12.976562 20.207031 12.996093 20.207031 0v-13.195313h55.734375v60.070313zm10.105469 290.59375h69.015625v67.980468h-69.015625zm89.222656 0h68.769532v67.980468h-68.769532zm88.980469 0h70.183594v67.980468h-70.183594zm157.996094 67.980468h-67.605469v-67.976562h67.605469zm0 0"/><path d="m104.945312 106c-5.488281 0-10.105468 4.613281-10.105468 10.101562 0 5.492188 4.617187 10.105469 10.105468 10.105469 5.332032 0 9.847657-4.34375 10.082032-9.664062.253906-5.648438-4.414063-10.542969-10.082032-10.542969zm0 0"/></svg>