<svg height="512pt" viewBox="0 -48 512 512" width="512pt" xmlns="http://www.w3.org/2000/svg"><path d="m512 69.664062c0-38.414062-31.25-69.664062-69.664062-69.664062-38.410157 0-69.660157 31.25-69.660157 69.664062v39.253907h-352.34375c-11.210937 0-20.332031 9.121093-20.332031 20.332031l1.335938 273.921875c2.535156 7.863281 10.964843 13.164063 18.996093 13.164063h422.003907c38.414062 0 69.664062-31.25 69.664062-69.660157zm-139.324219 189.867188-76.816406 41.109375c-11.289063 6.039063-2.113281 24.199219 9.597656 17.925781l67.21875-35.972656v41.941406l-133.371093 71.46875h-78.222657l73.316407-39.285156c11.507812-6.167969 1.917968-24.097656-9.605469-17.925781l-106.761719 57.210937-77.914062-.003906 332.558593-178.203125zm-193.855469-130.28125h76.808594l83.46875 83.46875-50.007812 26.796875zm-67.914062 77.855469-90.574219 47.859375v-40.730469l63.921875-33.78125zm-90.574219 70.859375 105.621094-55.8125 26.363281 26.359375-131.984375 69.742187zm147.03125-14.40625 26.816407 26.816406-173.847657 93.15625v-42.277344zm205.3125-68.832032-14.855469 7.960938-73.4375-73.4375h88.292969zm-102.3125 54.824219-57.460937 30.792969-151.089844-151.09375h88.25zm-250.03125-120.300781h12.722657l36.15625 36.15625-48.878907 25.828125zm262.023438 266.753906 90.34375-48.410156c.246093 18.886719 8.035156 35.988281 20.5 48.410156zm159.980469 0c-27.199219 0-49.328126-22.128906-49.328126-49.328125s22.128907-49.328125 49.328126-49.328125c27.203124 0 49.332031 22.128906 49.332031 49.328125s-22.128907 49.328125-49.332031 49.328125zm0-118.992187c-19.253907 0-36.703126 7.855469-49.328126 20.527343v-40.03125c0-26.824218 22.503907-49.328124 49.328126-49.328124 26.824218 0 49.332031 22.503906 49.332031 49.328124v40.03125c-12.625-12.671874-30.074219-20.527343-49.332031-20.527343zm48.140624-69.785157c-27.019531-25.878906-71.050781-25.375-97.464843 1.140626v-7.472657c0-.027343 0-.050781 0-.078125v-37.03125c0-26.824218 22.503906-49.328125 49.328125-49.328125 26.824218 0 49.328125 22.503907 49.328125 49.328125v44.582032c-.398438-.378907-.796875-.761719-1.191407-1.140626zm.015626-93.707031c-27.019532-25.890625-71.054688-25.398437-97.484376 1.121094v-44.976563c0-27.199218 22.128907-49.328124 49.328126-49.328124 27.203124 0 49.332031 22.128906 49.332031 49.328124v44.976563c-.390625-.371094-.785157-.746094-1.175781-1.121094-.429688-.414062.375.359375 0 0zm0 0"/><path d="m442.335938 313.492188c-18.296876 0-33.183594 14.886718-33.183594 33.183593s14.886718 33.183594 33.183594 33.183594c18.300781 0 33.1875-14.886719 33.1875-33.183594s-14.886719-33.183593-33.1875-33.183593zm0 46.035156c-7.082032 0-12.847657-5.765625-12.847657-12.851563 0-7.085937 5.765625-12.847656 12.847657-12.847656 7.085937 0 12.851562 5.761719 12.851562 12.847656 0 7.085938-5.765625 12.851563-12.851562 12.851563zm0 0"/><path d="m264.90625 317.757812c-5.527344 0-10.167969 4.644532-10.167969 10.167969 0 5.527344 4.644531 10.164063 10.167969 10.167969 5.367188 0 9.910156-4.371094 10.144531-9.722656.25-5.6875-4.441406-10.613282-10.144531-10.613282zm0 0"/></svg>