<svg height="511pt" viewBox="1 0 511.99921 511" width="511pt" xmlns="http://www.w3.org/2000/svg"><path d="m255.230469 300.558594c5.800781 0 10.503906-4.703125 10.503906-10.503906v-28.457032h23.175781c13.488282 0 13.507813-21.011718 0-21.011718h-23.175781v-110.808594h23.175781c13.488282 0 13.507813-21.011719 0-21.011719h-23.175781v-23.175781c0-13.488282-21.011719-13.507813-21.011719 0v23.175781h-110.804687v-23.175781c0-13.488282-21.011719-13.507813-21.011719 0v23.175781h-23.175781c-13.488281 0-13.511719 21.011719 0 21.011719h23.175781v110.808594h-23.175781c-13.488281 0-13.511719 21.011718 0 21.011718h23.175781v28.457032c0 13.488281 21.011719 13.507812 21.011719 0v-28.457032h110.804687v28.457032c0 5.800781 4.703125 10.503906 10.507813 10.503906zm-121.3125-170.78125h110.804687v110.808594h-110.804687zm0 0"/><path d="m328.554688 240.585938c-5.703126 0-10.503907 4.800781-10.503907 10.503906 0 5.710937 4.800781 10.507812 10.503907 10.507812 5.546874 0 10.242187-4.519531 10.484374-10.046875.261719-5.875-4.589843-10.964843-10.484374-10.964843zm0 0"/><path d="m306.09375 465.5625c-5.707031 0-10.503906 4.796875-10.503906 10.503906 0 5.710938 4.796875 10.503906 10.503906 10.503906 5.546875 0 10.242188-4.511718 10.484375-10.042968.261719-5.875-4.589844-10.964844-10.484375-10.964844zm0 0"/><path d="m501.875 95.988281c13.488281 0 13.507812-21.011719 0-21.011719h-15.546875v-27.8125h15.546875c13.488281 0 13.507812-21.011718 0-21.011718h-15.546875v-15.527344c0-13.488281-21.011719-13.511719-21.011719 0v15.542969h-27.808594v-15.542969c0-13.488281-21.011718-13.511719-21.011718 0v15.542969h-27.808594v-15.542969c0-13.488281-21.011719-13.511719-21.011719 0v15.542969h-27.8125v-15.542969c0-13.488281-21.011719-13.511719-21.011719 0v15.542969h-27.808593v-15.542969c0-13.488281-21.011719-13.511719-21.011719 0v15.542969h-27.8125v-15.542969c0-13.488281-21.007812-13.511719-21.007812 0v15.542969h-27.8125v-15.542969c0-13.488281-21.011719-13.511719-21.011719 0v15.542969h-27.808594v-15.542969c0-13.488281-21.011719-13.511719-21.011719 0v15.542969h-27.808594v-15.542969c0-13.488281-21.011718-13.511719-21.011718 0v15.542969h-27.8125v-15.542969c0-13.488281-21.007813-13.511719-21.007813 0v15.527344h-15.800781c-13.488281 0-13.507812 21.011718 0 21.011718h15.800781v27.8125h-15.800781c-13.488281 0-13.507812 21.011719 0 21.011719h15.800781v27.808594h-15.800781c-13.488281 0-13.507812 21.011719 0 21.011719h15.800781v27.8125h-15.800781c-13.488281 0-13.507812 21.007812 0 21.007812h15.800781v27.8125h-15.800781c-13.488281 0-13.507812 21.011719 0 21.011719h15.800781v27.808594h-15.800781c-13.488281 0-13.507812 21.011719 0 21.011719h15.800781v27.8125h-15.800781c-13.488281 0-13.507812 21.007812 0 21.007812h15.800781v27.8125h-15.800781c-13.488281 0-13.507812 21.011719 0 21.011719h15.800781v27.808593h-15.800781c-13.488281 0-13.507812 21.011719 0 21.011719h15.800781v27.808594h-15.800781c-13.488281 0-13.507812 21.011719 0 21.011719h15.8125v15.546875c0 13.492187 21.011719 13.511719 21.011719 0v-15.53125h27.8125v15.53125c0 13.492187 21.011719 13.511719 21.011719 0v-15.53125h27.808593v15.53125c0 13.492187 21.011719 13.511719 21.011719 0v-15.53125h27.8125v15.53125c0 13.492187 21.007812 13.511719 21.007812 0v-15.53125h27.8125v15.53125c0 13.492187 21.011719 13.511719 21.011719 0v-15.53125h14.679688c5.800781 0 10.503906-4.703125 10.503906-10.503907 0-5.800781-4.703125-10.507812-10.503906-10.507812h-209.984375v-418.382812h418.382812v418.382812h-109.734375c-5.800781 0-10.503906 4.703125-10.503906 10.507812 0 5.800782 4.703125 10.503907 10.503906 10.503907h12.105469v15.53125c0 13.488281 21.011719 13.507812 21.011719 0v-15.53125h27.8125v15.53125c0 13.488281 21.011719 13.507812 21.011719 0v-15.53125h27.808593v15.53125c0 13.488281 21.011719 13.507812 21.011719 0v-15.546875h15.53125c13.488281 0 13.507812-21.011719 0-21.011719h-15.546875v-27.808594h15.546875c13.488281 0 13.507812-21.011719 0-21.011719h-15.546875v-27.808593h15.546875c13.488281 0 13.507812-21.011719 0-21.011719h-15.546875v-27.8125h15.546875c13.488281 0 13.507812-21.007812 0-21.007812h-15.546875v-27.8125h15.546875c13.488281 0 13.507812-21.011719 0-21.011719h-15.546875v-27.808594h15.546875c13.488281 0 13.507812-21.011719 0-21.011719h-15.546875v-27.8125h15.546875c13.488281 0 13.507812-21.007812 0-21.007812h-15.546875v-27.8125h15.546875c13.488281 0 13.507812-21.011719 0-21.011719h-15.546875v-27.808594zm0 0"/></svg>