<svg height="512pt" viewBox="-14 0 512 512" width="512pt" xmlns="http://www.w3.org/2000/svg"><path d="m129.863281 10.089844c0-5.570313-4.515625-10.089844-10.089843-10.089844h-109.683594c-5.570313 0-10.089844 4.519531-10.089844 10.089844v491.820312c0 5.570313 4.519531 10.089844 10.089844 10.089844h109.683594c5.574218 0 10.089843-4.519531 10.089843-10.089844v-308.039062c0-12.957032-20.179687-12.976563-20.179687 0v297.949218h-89.503906v-21.550781h23.300781c12.957031 0 12.976562-20.179687 0-20.179687h-23.300781v-17.128906h23.300781c12.957031 0 12.976562-20.179688 0-20.179688h-23.300781v-17.128906h23.300781c12.957031 0 12.976562-20.179688 0-20.179688h-23.300781v-17.128906h23.300781c12.957031 0 12.976562-20.179688 0-20.179688h-23.300781v-17.128906h23.300781c12.957031 0 12.976562-20.179687 0-20.179687h-23.300781v-17.128907h23.300781c12.957031 0 12.976562-20.179687 0-20.179687h-23.300781v-17.128906h23.300781c12.957031 0 12.976562-20.179688 0-20.179688h-23.300781v-17.128906h23.300781c12.957031 0 12.976562-20.179687 0-20.179687h-23.300781v-17.128907h23.300781c12.957031 0 12.976562-20.179687 0-20.179687h-23.300781v-17.128906h23.300781c12.957031 0 12.976562-20.179688 0-20.179688h-23.300781v-24.214844h89.503906v24.058594c0 12.953125 20.179687 12.972656 20.179687 0zm-109.683593 59.828125v-49.738281h89.503906v49.738281zm0 0"/><path d="m296.804688 69.917969h-109.6875c-5.570313 0-10.089844 4.519531-10.089844 10.089843v421.902344c0 5.570313 4.519531 10.089844 10.089844 10.089844h109.6875c5.570312 0 10.089843-4.519531 10.089843-10.089844v-421.902344c0-5.570312-4.519531-10.089843-10.089843-10.089843zm-10.09375 421.902343h-89.503907v-21.550781h23.300781c12.957032 0 12.976563-20.179687 0-20.179687h-23.300781v-17.128906h23.300781c12.957032 0 12.976563-20.179688 0-20.179688h-23.300781v-17.128906h23.300781c12.957032 0 12.976563-20.179688 0-20.179688h-23.300781v-17.128906h23.300781c12.957032 0 12.976563-20.179688 0-20.179688h-23.300781v-17.128906h23.300781c12.957032 0 12.976563-20.179687 0-20.179687h-23.300781v-17.128907h23.300781c12.957032 0 12.976563-20.179687 0-20.179687h-23.300781v-17.128906h23.300781c12.957032 0 12.976563-20.179688 0-20.179688h-23.300781v-17.128906h23.300781c12.957032 0 12.976563-20.179687 0-20.179687h-23.300781v-17.128907h23.300781c12.957032 0 12.976563-20.179687 0-20.179687h-23.300781v-17.128906h23.300781c12.957032 0 12.976563-20.179688 0-20.179688h-23.300781v-24.214844h89.503907zm0 0"/><path d="m483.921875 10.089844c0-5.570313-4.519531-10.089844-10.089844-10.089844h-109.6875c-5.570312 0-10.089843 4.519531-10.089843 10.089844v491.820312c0 5.570313 4.519531 10.089844 10.089843 10.089844h109.6875c5.570313 0 10.089844-4.519531 10.089844-10.089844zm-20.179687 10.089844v401.71875h-89.507813v-24.214844h23.300781c12.957032 0 12.976563-20.179688 0-20.179688h-23.300781v-17.128906h23.300781c12.957032 0 12.976563-20.179688 0-20.179688h-23.300781v-17.125h23.300781c12.957032 0 12.976563-20.183593 0-20.183593h-23.300781v-17.125h23.300781c12.957032 0 12.976563-20.183594 0-20.183594h-23.300781v-17.125h23.300781c12.957032 0 12.976563-20.183594 0-20.183594h-23.300781v-17.125h23.300781c12.957032 0 12.976563-20.183593 0-20.183593h-23.300781v-17.125h23.300781c12.957032 0 12.976563-20.183594 0-20.183594h-23.300781v-17.125h23.300781c12.957032 0 12.976563-20.183594 0-20.183594h-23.300781v-17.125h23.300781c12.957032 0 12.976563-20.179688 0-20.179688h-23.300781v-17.128906h23.300781c12.957032 0 12.976563-20.179687 0-20.179687h-23.300781v-21.550781zm0 471.640624h-89.507813v-49.738281h89.507813zm0 0"/><path d="m112.636719 146.878906c-3.875 3.878906-3.882813 10.390625 0 14.269532 3.882812 3.878906 10.394531 3.875 14.277343 0 3.761719-3.757813 3.878907-10.03125.296876-13.941407-3.816407-4.171875-10.570313-4.332031-14.574219-.328125-1.875 1.878906 1.875-1.875 0 0zm0 0"/><path d="m261.136719 209.105469c5.476562 0 10.085937-4.597657 10.089843-10.078125 0-5.492188-4.605468-10.09375-10.089843-10.09375-5.339844 0-9.839844 4.324218-10.074219 9.648437-.246094 5.652344 4.40625 10.523438 10.074219 10.523438zm0 0"/></svg>