<?xml version="1.0"?>
<svg xmlns="http://www.w3.org/2000/svg" viewBox="0 0 64 64" width="512" height="512"><g id="Application-Tablet"><path d="M59,2H5A3,3,0,0,0,2,5V45a3,3,0,0,0,3,3H30v3a1,1,0,0,0,.219.625L34,56.351V61a1,1,0,0,0,1,1H49a1,1,0,0,0,1-1V56.192l1.929-4.82A1.012,1.012,0,0,0,52,51V48h7a3,3,0,0,0,3-3V5A3,3,0,0,0,59,2ZM4,45V5A1,1,0,0,1,5,4h5V46H5A1,1,0,0,1,4,45Zm46,5.808-1.929,4.82A1.012,1.012,0,0,0,48,56v4H36V56a1,1,0,0,0-.219-.625L32,50.649V40a1,1,0,0,1,1-1,.978.978,0,0,1,.713.306A.965.965,0,0,1,34,40v6h2V28a1,1,0,0,1,1-1,.978.978,0,0,1,.713.306A.965.965,0,0,1,38,28V42h2V38a1,1,0,0,1,1-1,.978.978,0,0,1,.713.306A.965.965,0,0,1,42,38v4h2V39a1,1,0,0,1,1-1,.985.985,0,0,1,.487.128A1.033,1.033,0,0,1,46,39v3h2V40a1,1,0,0,1,1-1,.978.978,0,0,1,.713.306A.965.965,0,0,1,50,40ZM39,25.784A2.938,2.938,0,0,0,37,25a3,3,0,0,0-3,3H33V22h6ZM51.126,37.892a2.946,2.946,0,0,0-3.591-.494,2.706,2.706,0,0,0-.39-.487c-.044-.048-.1-.089-.145-.134V34h6v6H52A2.922,2.922,0,0,0,51.126,37.892ZM60,45a1,1,0,0,1-1,1H52V42h1a2,2,0,0,0,2-2V34a2,2,0,0,0-2-2H47a2,2,0,0,0-2,2v2a2.965,2.965,0,0,0-1.468.4,2.8,2.8,0,0,0-.406-.508A2.928,2.928,0,0,0,40,35.184V29.722A1.993,1.993,0,0,0,41,28V22a2,2,0,0,0-2-2H33a2,2,0,0,0-2,2v6a2,2,0,0,0,2,2h1v7.182A2.975,2.975,0,0,0,30,40v6H12V4H59a1,1,0,0,1,1,1Z"/><rect x="6" y="23" width="2" height="4"/><path d="M25,8H19a2,2,0,0,0-2,2v6a2,2,0,0,0,2,2h6a2,2,0,0,0,2-2V10A2,2,0,0,0,25,8Zm-6,8V10h6v6Z"/><path d="M39,8H33a2,2,0,0,0-2,2v6a2,2,0,0,0,2,2h6a2,2,0,0,0,2-2V10A2,2,0,0,0,39,8Zm-6,8V10h6v6Z"/><path d="M53,8H47a2,2,0,0,0-2,2v6a2,2,0,0,0,2,2h6a2,2,0,0,0,2-2V10A2,2,0,0,0,53,8Zm-6,8V10h6v6Z"/><path d="M25,20H19a2,2,0,0,0-2,2v6a2,2,0,0,0,2,2h6a2,2,0,0,0,2-2V22A2,2,0,0,0,25,20Zm-6,8V22h6v6Z"/><path d="M53,20H47a2,2,0,0,0-2,2v6a2,2,0,0,0,2,2h6a2,2,0,0,0,2-2V22A2,2,0,0,0,53,20Zm-6,8V22h6v6Z"/><path d="M25,32H19a2,2,0,0,0-2,2v6a2,2,0,0,0,2,2h6a2,2,0,0,0,2-2V34A2,2,0,0,0,25,32Zm-6,8V34h6v6Z"/></g></svg>
