<svg height="512pt" viewBox="-61 0 512 512" width="512pt" xmlns="http://www.w3.org/2000/svg"><path d="m224.523438 57.925781c-.527344-5.175781-4.886719-9.113281-10.089844-9.113281h-16.820313v-38.671875c0-5.601563-4.542969-10.140625-10.144531-10.140625h-109.789062c-5.601563 0-10.144532 4.539062-10.144532 10.140625v38.671875h-17.300781c-5.203125 0-9.5625 3.9375-10.089844 9.113281l-40.0937498 394.09375c-.6015622 5.894531 4.1640628 11.167969 10.0898438 11.167969h22.265625v38.671875c0 5.601563 4.539062 10.140625 10.140625 10.140625h315.660156c5.601563 0 10.144531-4.539062 10.144531-10.140625v-38.671875h12.417969c5.925781 0 10.691407-5.277344 10.089844-11.167969l-18.957031-186.34375c-1.316406-12.953125-21.5-10.921875-20.175782 2.050781l17.820313 175.175782h-105.859375l-27.914062-274.398438.226562-2.257812h105.398438l2.0625 20.285156c1.335937 13.109375 21.496093 10.871094 20.179687-2.054688l-2.992187-29.398437c-.527344-5.175781-4.882813-9.113281-10.089844-9.113281h-8.679688v-26.640625c0-5.597657-4.539062-10.140625-10.140625-10.140625h-82.726562c-5.597657 0-10.140625 4.542968-10.140625 10.140625v26.640625h-5.394532zm34.632812 71.542969h62.441406v16.496094h-62.441406zm-24.507812 263.210938c-69.089844 23.605468-147.46875 9.953124-204.5625-35.484376l2.40625-23.683593c63.707031 26.300781 137.605468 22.988281 198.796874-8.699219l6.78125 66.660156c-.535156.191406-3.464843 1.222656-3.421874 1.207032-.898438.308593.671874-.230469 0 0zm-14.300782-175.371094c-22.164062 19.484375-47.554687 33.976562-75.546875 43.109375-12.382812 4.035156-6.105469 23.328125 6.289063 19.28125 26.128906-8.523438 50.183594-21.316407 71.738281-38.125l6.242187 61.363281c-59.027343 33.453125-132.410156 37.0625-194.414062 9.417969l2.496094-24.519531c9.722656 1.679687 40.382812 10.675781 41.046875-6.441407.609375-15.785156-29.03125-11.996093-39-13.785156l3.136719-30.8125c2.0625-.148437 4.125-.300781 6.1875-.449219-.265626.023438-.527344.042969-.789063.066406 2.621094-.222656-1.84375.160157.789063-.066406.15625-.011718-1.855469.160156 0 0 0 0-1.855469.160156 0 0 64.371093-5.507812 124.585937-37.902344 164.761718-88.476562zm-15.078125-148.214844 4.910157 48.246094c-36.429688 56.789062-98.460938 93.929687-165.761719 98.96875l4.378906-43.046875c54.605469-17.375 101.867187-55 131.257813-104.167969zm-117.449219-20.28125v-28.53125h89.507813v28.53125zm68.183594 20.28125c-25.347656 37.398438-62.46875 66.511719-104.945312 81.964844l8.339844-81.964844zm-134.636718 373.808594 6.320312-62.128906c.308594.21875.625.433593.9375.652343 26.492188 18.628907 56.800781 31.703125 88.519531 38.230469 40.746094 8.378906 83.597657 5.851562 123.035157-7.425781l3.121093 30.671875zm31.320312 20.285156h159.714844v28.53125h-159.714844zm295.378906 28.53125h-115.324218v-28.53125h115.324218zm0 0"/><path d="m350.144531 219.648438c-3.898437 3.898437-3.898437 10.453124 0 14.351562 3.894531 3.894531 10.445313 3.898438 14.339844 0 3.785156-3.792969 3.90625-10.074219.296875-14.023438-3.824219-4.183593-10.621094-4.34375-14.636719-.328124zm0 0"/><path d="m108.832031 289.023438c12.082031 0 13.433594-18.242188 1.585938-20.019532-13.785157-2.0625-15.644531 20.019532-1.585938 20.019532zm0 0"/></svg>