<svg height="511pt" viewBox="-30 1 511 511.99898" width="511pt" xmlns="http://www.w3.org/2000/svg"><path d="m431.433594 42.441406c-14.847656-18.433594-35.402344-28.976562-57.875-29.691406-24.472656-.777344-47.488282 10.757812-62.738282 29.691406-16.816406 20.878906-23.582031 48.414063-18.558593 75.554688l66.511719 359.347656c-33.316407-5.15625-58.902344-34.03125-58.902344-68.769531v-66.261719c0-46.140625-34.9375-84.261719-79.746094-89.320312v-88.488282c22.339844-8.308594 37.074219-20.328125 37.074219-35.890625v-78.976562c0-32.585938-64.566407-49.636719-128.347657-49.636719-63.785156 0-128.351562 17.050781-128.351562 49.636719v.023437 78.949219c0 15.566406 14.738281 27.582031 37.074219 35.894531v182.917969c-30.484375 11.269531-37.074219 25.660156-37.074219 35.96875v.03125 78.941406c0 32.585938 64.570312 49.636719 128.351562 49.636719s128.347657-17.050781 128.347657-49.636719v-78.976562c0-10.320313-6.601563-24.703125-37.074219-35.964844v-73.960937c33.582031 4.929687 59.445312 33.917968 59.445312 68.847656v66.261718c0 49.566407 40.324219 89.894532 89.894532 89.894532h1.660156c4.832031 0 9.09375-3.5625 9.980469-8.300782l38.128906-205.992187c2.371094-12.816406-17.585937-16.523437-19.960937-3.695313l-28.148438 152.066407-58.902344-318.242188c-3.945312-21.3125 1.304688-42.863281 14.40625-59.125 11.269532-13.992187 28.160156-22.722656 46.289063-22.132812 16.460937.519531 31.628906 8.378906 42.707031 22.132812 13.097656 16.261719 18.347656 37.8125 14.402344 59.144531l-15.632813 85.425782c-2.34375 12.816406 17.621094 16.492187 19.96875 3.652344l15.628907-85.402344c5.023437-27.140625-1.742188-54.675782-18.558594-75.554688zm-231.609375 290.710938v34.464844c-46.027344 15.636718-95.917969 15.636718-141.949219 0v-34.464844c46.007812 14.1875 95.941406 14.179687 141.949219 0zm-139.152344-111.972656c45.234375 13.347656 94.078125 13.066406 139.152344-.832032v35.050782c-45.785157 15.550781-96.164063 15.554687-141.949219 0v-35.050782c.933594.277344 1.863281.558594 2.796875.832032 1.050781.3125-.589844-.171876 0 0zm139.152344 55.570312v35.054688c-45.785157 15.546874-96.164063 15.554687-141.949219 0v-35.054688c46.007812 14.1875 95.941406 14.179688 141.949219 0zm-179.023438-148.140625v-50.792969c14.820313 8.824219 37.289063 15.421875 65.851563 18.945313 12.941406 1.597656 15.441406-18.546875 2.488281-20.144531-48.269531-5.957032-68.316406-20.5-68.339844-26.96875v-.011719c0-.003907 0-.007813 0-.007813.011719-3.136718 5.808594-10.976562 27.6875-18.285156 21.3125-7.121094 49.851563-11.042969 80.363281-11.042969 30.507813 0 59.046876 3.921875 80.363282 11.042969 21.898437 7.316406 27.683594 15.164062 27.683594 18.292969 0 6.53125-20.257813 21.171875-69.066407 27.066406-12.894531 1.558594-10.542969 21.726563 2.433594 20.15625 28.941406-3.496094 51.679687-10.125 66.632813-19.019531v50.769531c0 3.128906-5.785157 10.980469-27.6875 18.296875-21.3125 7.121094-49.855469 11.042969-80.363282 11.042969-30.507812 0-59.046875-3.921875-80.363281-11.042969-21.898437-7.316406-27.683594-15.167969-27.683594-18.296875zm108.050781 49.636719c24.824219 0 49.765626-2.582032 70.972657-7.660156v28.410156c-45.78125 15.558594-96.167969 15.550781-141.949219 0v-28.410156c21.207031 5.078124 46.152344 7.660156 70.976562 7.660156zm80.363282 302.410156c-21.316406 7.125-49.855469 11.042969-80.363282 11.042969-30.511718 0-59.050781-3.917969-80.367187-11.042969-21.898437-7.316406-27.683594-15.164062-27.683594-18.292969v-50.898437c24.074219 14.234375 66.230469 21.5625 108.050781 21.5625 41.816407 0 83.972657-7.328125 108.046876-21.5625v50.898437c0 3.128907-5.785157 10.976563-27.683594 18.292969zm27.683594-97.265625c0 3.125-5.785157 10.976563-27.683594 18.292969-21.316406 7.121094-49.855469 11.042968-80.363282 11.042968-30.511718 0-59.050781-3.921874-80.367187-11.042968-21.859375-7.304688-27.664063-15.136719-27.683594-18.277344v-.015625c0-.003906 0-.007813 0-.011719.007813-2.53125 3.796875-8.132812 16.773438-14.042968v5.429687c0 4.230469 2.625 8.015625 6.582031 9.503906 27.308594 10.25 56 15.378907 84.695312 15.378907 28.691407 0 57.382813-5.128907 84.691407-15.378907 3.960937-1.488281 6.582031-5.273437 6.582031-9.503906v-5.429687c12.984375 5.914062 16.773438 11.515624 16.773438 14.054687zm0 0"/><path d="m371.125 52.671875c-19.820312 0-35.949219 16.125-35.949219 35.949219 0 19.824218 16.128907 35.949218 35.949219 35.949218 19.824219 0 35.953125-16.125 35.953125-35.949218 0-19.824219-16.128906-35.949219-35.953125-35.949219zm0 51.601563c-8.628906 0-15.648438-7.023438-15.648438-15.652344s7.019532-15.648438 15.648438-15.648438c8.632812 0 15.652344 7.019532 15.652344 15.648438s-7.019532 15.652344-15.652344 15.652344zm0 0"/><path d="m128.847656 98.769531c5.515625 0 10.152344-4.636719 10.152344-10.152343 0-5.515626-4.640625-10.148438-10.152344-10.148438-5.355468 0-9.890625 4.363281-10.128906 9.707031-.253906 5.675781 4.4375 10.59375 10.128906 10.59375zm0 0"/><path d="m416.597656 231.574219c-5.511718 0-10.148437 4.636719-10.148437 10.152343 0 5.515626 4.636719 10.148438 10.148437 10.148438 5.359375 0 9.894532-4.367188 10.132813-9.707031.25-5.675781-4.4375-10.59375-10.132813-10.59375zm0 0"/></svg>